<svg width="374" height="80" viewBox="0 0 374 80" fill="none" xmlns="http://www.w3.org/2000/svg">
<path d="M248.019 0.0285339H313.003V12.6438H287.227V79.0017H274.335V12.6438H248.016L248.019 0.0285339ZM141.141 0.0285339V12.6438H89.0516V32.9382H130.942V45.5499H89.055V66.3899H141.141V79.0052H76.1633V12.6438H76.1565V0.0320986L141.141 0.0285339ZM173.592 0.0641946H156.722L217.141 79.0373H234.059L203.846 39.5757L234.011 0.124829L217.141 0.153367L195.401 28.5476L173.592 0.0641946ZM190.9 56.4746L182.455 45.4286L156.675 79.098H173.592L190.9 56.4746Z" fill="#3F3F3F"/>
<path fill-rule="evenodd" clip-rule="evenodd" d="M76.6144 79.0017L16.1138 0H0V78.9696H12.8883V16.881L60.4191 79.0017H76.6144Z" fill="#3F3F3F"/>
<path d="M315.9 78.5202C315.452 78.5267 315.007 78.4389 314.592 78.2619C314.176 78.0849 313.799 77.8222 313.482 77.4894C313.157 77.1689 312.901 76.7797 312.729 76.3476C312.558 75.9154 312.476 75.45 312.488 74.982C312.479 74.0238 312.81 73.1999 313.482 72.5103C313.799 72.1771 314.177 71.9142 314.593 71.7371C315.009 71.5601 315.455 71.4725 315.903 71.4796C316.812 71.4796 317.604 71.8243 318.277 72.5139C318.602 72.8279 318.862 73.2093 319.039 73.6342C319.217 74.059 319.308 74.518 319.308 74.982C319.307 75.6117 319.14 76.2288 318.827 76.7654C318.52 77.2949 318.091 77.7342 317.579 78.0422C317.072 78.3597 316.489 78.525 315.9 78.5202ZM337.902 45.2539H343.613V68.3944C343.604 70.5177 343.17 72.3427 342.311 73.8692C341.461 75.3834 340.212 76.6062 338.716 77.3895C337.183 78.2075 335.397 78.6176 333.36 78.62C331.501 78.6176 329.831 78.2705 328.347 77.5786C326.914 76.9335 325.689 75.8656 324.82 74.5041C323.949 73.1464 323.515 71.4534 323.518 69.4252H329.239C329.248 70.3144 329.437 71.0813 329.806 71.7257C330.17 72.3573 330.697 72.8679 331.325 73.1987C331.981 73.5435 332.732 73.7159 333.577 73.7159C334.493 73.7159 335.283 73.5161 335.917 73.1095C336.555 72.7101 337.045 72.112 337.386 71.3155C337.721 70.5308 337.893 69.5571 337.902 68.3944V45.2539ZM367.114 54.3025C367.066 53.6482 366.878 53.0138 366.563 52.4468C366.249 51.8797 365.817 51.3948 365.299 51.0283C364.225 50.2412 362.836 49.8489 361.131 49.8513C360.08 49.827 359.034 50.0172 358.051 50.4113C357.275 50.7262 356.593 51.2546 356.078 51.9414C355.625 52.5834 355.392 53.3157 355.379 54.1384C355.379 54.828 355.533 55.4224 355.84 55.9218C356.143 56.4306 356.559 56.8562 357.088 57.1986C357.637 57.5602 358.223 57.8546 358.835 58.076C359.482 58.3138 360.128 58.5135 360.775 58.6752L363.753 59.4421C364.939 59.7246 366.099 60.1186 367.219 60.6191C368.297 61.0873 369.306 61.7154 370.214 62.4844C371.088 63.2238 371.803 64.1487 372.313 65.1987C372.829 66.2568 373.088 67.5003 373.09 68.9294C373.09 70.853 372.615 72.5484 371.666 74.0155C370.716 75.4707 369.342 76.6108 367.545 77.4359C365.756 78.2539 363.587 78.664 361.036 78.6664C358.574 78.6664 356.423 78.2669 354.619 77.4716C352.803 76.6845 351.385 75.5289 350.363 74.0048C349.345 72.483 348.796 70.6307 348.714 68.4479H354.375C354.422 69.4897 354.777 70.49 355.392 71.3084C355.998 72.0645 356.782 72.6316 357.743 73.0097C358.713 73.383 359.796 73.5696 360.992 73.5696C362.242 73.5696 363.344 73.3735 364.296 72.9811C365.241 72.5936 365.98 72.0467 366.514 71.3405C367.056 70.6461 367.33 69.8258 367.334 68.8795C367.347 68.0994 367.089 67.3412 366.609 66.7466C366.129 66.1854 365.466 65.7146 364.618 65.3342C363.649 64.9139 362.651 64.5729 361.633 64.3141L358.014 63.3511C355.4 62.6544 353.336 61.5963 351.821 60.1768C350.306 58.7573 349.549 56.8681 349.549 54.5094C349.549 52.5715 350.06 50.8737 351.082 49.4162C352.095 47.9586 353.48 46.8268 355.236 46.0207C357 45.2099 358.992 44.8056 361.213 44.808C363.462 44.8056 365.439 45.2099 367.141 46.0207C368.844 46.8268 370.18 47.9467 371.15 49.3805C372.122 50.8072 372.623 52.4478 372.653 54.3025H367.114Z" fill="#3F3F3F"/>
</svg>
