<svg width="366" height="115" viewBox="0 0 366 115" fill="none" xmlns="http://www.w3.org/2000/svg">
<path d="M79.9928 57.4754C79.9928 64.0453 74.4467 69.3735 67.6023 69.3735C60.7579 69.3735 55.2118 64.0453 55.2118 57.4754C55.2118 50.9055 60.7579 45.5772 67.6023 45.5772C74.4467 45.5772 79.9928 50.9055 79.9928 57.4754Z" fill="#3F3F3F" stroke="#3F3F3F" stroke-width="0.06928"/>
<path fill-rule="evenodd" clip-rule="evenodd" d="M67.6026 33.2135C84.285 33.2135 99.7826 35.5125 111.468 39.3758C125.547 44.0308 134.203 51.0864 134.203 57.4754C134.203 64.1331 125.029 71.6288 109.91 76.4396C98.4798 80.0765 83.4385 81.9751 67.6026 81.9751C51.3664 81.9751 35.9917 80.193 24.4326 76.3996C9.80835 71.5991 1 64.0063 1 57.4754C1 51.1383 9.26495 44.1371 23.1459 39.4893C34.8746 35.5622 50.7549 33.2135 67.6003 33.2135H67.6026Z" stroke="#3F3F3F" stroke-width="1.66272"/>
<path fill-rule="evenodd" clip-rule="evenodd" d="M45.6104 45.4144C53.9447 31.5357 63.7601 19.791 73.0826 11.9996C84.3147 2.61221 95.0037 -1.06418 100.766 2.12721C106.772 5.45322 108.95 16.8304 105.736 31.8114C103.309 43.1378 97.5052 56.5994 89.594 69.774C81.4826 83.2817 72.1947 95.1824 62.9992 102.901C51.3634 112.67 40.114 116.205 34.223 112.942C28.5066 109.779 26.3207 99.4032 29.0629 85.5328C31.3799 73.8134 37.1946 59.4287 45.6077 45.4142L45.6104 45.4144Z" stroke="#3F3F3F" stroke-width="1.66272"/>
<path fill-rule="evenodd" clip-rule="evenodd" d="M45.6312 69.8095C37.2734 55.9464 31.583 41.9114 29.2078 30.2638C26.3486 16.23 28.3702 5.50009 34.1277 2.29942C40.1274 -1.03634 51.4786 2.83318 63.3881 12.9889C72.3926 20.6671 81.6388 32.2169 89.5731 45.3792C97.7078 58.8738 103.805 72.5453 106.176 84.0512C109.177 98.6114 106.748 109.736 100.863 113.008C95.1523 116.183 84.7021 112.822 73.5592 103.613C64.1442 95.8325 54.0715 83.8102 45.6312 69.8092V69.8095Z" stroke="#3F3F3F" stroke-width="1.66272"/>
<path fill-rule="evenodd" clip-rule="evenodd" d="M205.524 87.9627L190.295 65.8658C197.992 65.2135 204.927 59.8575 204.927 50.0725C204.927 40.1158 197.57 33.7435 187.249 33.7435H164.584V87.9215H171.605V66.3945H182.855L197.234 87.9215L205.524 87.9627ZM186.409 60.5064H171.608V39.7931H186.409C193.094 39.7931 197.659 44.0161 197.659 50.1102C197.659 56.2044 193.091 60.5132 186.409 60.5132V60.5064ZM231.661 88.9344C238.347 88.9344 243.841 86.8229 247.903 82.926L244.857 78.9434C241.639 82.1123 236.906 83.8977 232.255 83.8977C223.46 83.8977 218.044 77.7245 217.536 70.336H250.605V68.791C250.605 57.0147 243.33 47.7515 230.978 47.7515C219.306 47.7515 210.851 56.9323 210.851 68.3035C210.851 80.5708 219.564 88.9035 231.658 88.9035L231.661 88.9344ZM244.353 65.8624H217.54C217.88 59.854 222.188 52.7814 230.903 52.7814C240.209 52.7814 244.267 60.012 244.353 65.8624ZM292.737 87.9593V60.9905C292.737 51.487 285.551 47.7481 276.921 47.7481C270.236 47.7481 264.995 49.8596 260.597 54.2474L263.557 58.4704C267.193 54.7349 271.172 53.0286 276.077 53.0286C281.997 53.0286 286.398 56.0327 286.398 61.3132V68.379C283.098 64.7225 278.447 63.0161 272.863 63.0161C265.928 63.0161 258.563 67.1602 258.563 75.9323C258.563 84.4607 265.921 88.9309 272.863 88.9309C278.362 88.9309 283.016 87.0632 286.398 83.4891V87.9524L292.737 87.9593ZM275.148 84.5466C269.227 84.5466 265.08 80.9759 265.08 76.0182C265.08 70.9815 269.227 67.4074 275.148 67.4074C279.631 67.4074 283.942 69.0313 286.398 72.2827V79.6747C283.946 82.9226 279.631 84.5466 275.148 84.5466ZM323.41 88.9344C330.853 88.9344 335.25 86.0092 338.382 82.1123L334.153 78.3769C331.447 81.8686 327.979 83.4925 323.785 83.4925C315.073 83.4925 309.664 76.9932 309.664 68.3035C309.664 59.6137 315.077 53.1968 323.785 53.1968C328.015 53.1968 331.482 54.7418 334.153 58.3125L338.382 54.577C335.254 50.6767 330.853 47.755 323.41 47.755C311.23 47.755 303.025 56.6919 303.025 68.3069C303.025 80.0043 311.23 88.9069 323.41 88.9069V88.9344ZM357.587 88.9344C361.305 88.9344 363.593 87.8769 365.202 86.4177L363.343 81.8686C362.496 82.7612 360.84 83.4925 359.028 83.4925C356.239 83.4925 354.881 81.381 354.881 78.4558V54.086H363.175V48.7266H354.881V38.0043H348.535V48.7266H341.768V54.0895H348.535V79.7605C348.535 85.6109 351.581 88.9412 357.587 88.9412V88.9344Z" fill="#3F3F3F"/>
</svg>
