<svg width="280" height="72" viewBox="0 0 280 72" fill="none" xmlns="http://www.w3.org/2000/svg">
<path d="M108.852 32.2002C113.787 32.2002 115.988 35.3905 116.721 38.2485L123.656 35.7228C122.323 30.5385 117.521 25.0883 108.786 25.0883C99.45 25.0883 92.1814 32.2666 92.1814 42.2365C92.1814 52.0734 99.45 59.4511 108.986 59.4511C117.521 59.4511 122.389 53.9345 123.923 48.8831L117.121 46.4238C116.388 48.8831 114.054 52.4058 108.986 52.4058C104.118 52.4058 99.9168 48.7501 99.9168 42.2365C99.9168 35.7228 104.118 32.2002 108.852 32.2002ZM135.861 39.4449C135.994 35.3241 138.328 32.1337 142.596 32.1337C147.464 32.1337 149.264 35.3241 149.264 39.312V58.4541H157V37.9827C157 30.8708 153.132 25.1548 145.13 25.1548C141.729 25.1548 138.061 26.3512 135.861 29.2092V10.3329H128.125V58.4541H135.861V39.4449ZM161.749 49.6807C161.749 54.7985 165.95 59.4511 172.752 59.4511C178.02 59.4511 181.221 56.7925 182.754 54.3333C182.754 56.9254 183.021 58.2547 183.088 58.4541H190.29C190.223 58.1218 189.89 56.1943 189.89 53.2698V37.1851C189.89 30.7379 186.089 25.0883 176.086 25.0883C168.084 25.0883 163.016 30.0733 162.416 35.6564L169.484 37.2516C169.818 33.9947 172.085 31.4026 176.153 31.4026C180.421 31.4026 182.288 33.5959 182.288 36.321C182.288 37.451 181.754 38.3815 179.887 38.6473L171.552 39.9102C166.017 40.7078 161.749 43.8981 161.749 49.6807ZM174.219 53.4027C171.151 53.4027 169.484 51.4088 169.484 49.2154C169.484 46.5568 171.418 45.2274 173.819 44.8287L182.288 43.5658V45.028C182.288 51.3423 178.553 53.4027 174.219 53.4027ZM226.981 26.0853H216.712L204.242 39.1791V10.3329H196.573V58.4541H204.242V49.4148L208.243 45.2275L217.779 58.4541H227.248L213.645 39.7773L226.981 26.0853ZM249.184 25.8859C248.85 25.8194 248.05 25.6865 247.116 25.6865C242.849 25.6865 239.248 27.747 237.714 31.2696V26.0853H230.179V58.4541H237.914V43.0341C237.914 36.9857 240.648 33.5295 246.65 33.5295C247.45 33.5295 248.317 33.5959 249.184 33.7289V25.8859ZM251.038 49.6807C251.038 54.7985 255.239 59.4511 262.041 59.4511C267.309 59.4511 270.51 56.7925 272.044 54.3333C272.044 56.9254 272.311 58.2547 272.377 58.4541H279.579C279.513 58.1218 279.179 56.1943 279.179 53.2698V37.1851C279.179 30.7379 275.378 25.0883 265.375 25.0883C257.373 25.0883 252.305 30.0733 251.705 35.6564L258.774 37.2516C259.107 33.9947 261.374 31.4026 265.442 31.4026C269.71 31.4026 271.577 33.5959 271.577 36.321C271.577 37.4509 271.044 38.3815 269.176 38.6473L260.841 39.9102C255.306 40.7078 251.038 43.8981 251.038 49.6807ZM263.508 53.4027C260.441 53.4027 258.774 51.4088 258.774 49.2154C258.774 46.5568 260.707 45.2274 263.108 44.8287L271.577 43.5658V45.028C271.577 51.3423 267.843 53.4027 263.508 53.4027Z" fill="#3F3F3F"/>
<path d="M72.0079 35.8859C72.0079 16.0667 55.8884 0 36.004 0C16.1195 0 0 16.0667 0 35.8859C0 55.7052 16.1195 71.7719 36.004 71.7719C55.8884 71.7719 72.0079 55.7052 72.0079 35.8859Z" fill="url(#paint0_linear_0_1)"/>
<path d="M19.4892 37.4177L44.0313 13.1244C44.4897 12.6706 45.2277 13.2229 44.9181 13.7883L35.7838 30.4751C35.5798 30.8471 35.8502 31.3012 36.2755 31.3012H52.0612C52.5697 31.3012 52.8152 31.922 52.4434 32.268L24.7812 58.0003C24.2852 58.4617 23.5469 57.8115 23.9451 57.2642L37.0398 39.2589C37.3083 38.8897 37.0436 38.3725 36.5862 38.3725H19.8841C19.3839 38.3725 19.1343 37.769 19.4892 37.4177Z" fill="#626262"/>
<defs>
<linearGradient id="paint0_linear_0_1" x1="36.004" y1="0" x2="36.004" y2="71.7719" gradientUnits="userSpaceOnUse">
<stop offset="1" stop-color="#3F3F3F"/>
</linearGradient>
</defs>
</svg>
