<svg width="210" height="108" viewBox="0 0 210 108" fill="none" xmlns="http://www.w3.org/2000/svg">
<path d="M140.543 41.1162C136.744 41.1162 133.91 43.2447 133.91 48.3683C133.91 52.1919 135.776 54.9067 140.335 54.9067C144.201 54.9067 146.827 52.3067 146.827 48.2078C146.827 43.5557 144.481 41.1162 140.543 41.1162ZM132.945 77.2875C132.044 78.5468 131.148 79.8876 131.148 81.4298C131.148 84.5779 134.668 85.5287 139.506 85.5287C143.513 85.5287 148.97 85.21 148.97 80.9582C148.97 78.4346 146.345 78.2766 143.026 78.0395L132.969 77.2544L132.945 77.2875ZM153.393 41.3508C154.633 43.1682 155.95 45.6842 155.95 49.3115C155.95 58.0548 149.916 63.1784 141.236 63.1784C139.001 63.1784 137.046 62.8598 135.776 62.4698L133.497 66.612L140.268 67.0836C152.224 67.9503 159.264 68.3479 159.264 78.8221C159.264 87.8866 152.291 93 140.268 93C127.765 93 123 89.3752 123 83.1224C123 79.5792 124.386 77.6852 126.799 75.0826C124.52 73.9865 123.76 72.0135 123.76 69.8876C123.76 68.1542 124.52 66.5738 125.764 65.1081L130.046 60.3796C126.661 58.4932 124.102 54.3892 124.102 48.5901C124.102 39.5282 129.353 33.3059 139.924 33.3059C142.896 33.3059 144.693 33.6194 146.282 34.0961H159.753V40.7925L153.395 41.3431M171.904 27.0301C167.993 27.0301 165.687 24.43 165.687 19.9335C165.687 15.4369 167.966 13 171.904 13C175.911 13 178.19 15.4471 178.19 19.9335C178.19 24.4198 175.908 27.0301 171.904 27.0301ZM162.965 74.3867V68.167L166.491 67.6164C167.456 67.4583 167.597 67.2213 167.597 66.0359V42.8751C167.597 42.0084 167.389 41.4578 166.697 41.2182L162.965 39.7219L163.724 33.3441H178.027V66.0487C178.027 67.3105 178.094 67.466 179.133 67.6291L182.653 68.1797V74.3943H162.958M210 71.3355C207.028 72.9924 202.674 74.5218 198.737 74.5218C190.513 74.5218 187.406 70.7441 187.406 61.8351V41.1876C187.406 40.716 187.406 40.3974 186.848 40.3974H182.043V33.3875C188.121 32.6227 190.542 29.1305 191.302 20.5401H197.865V31.7306C197.865 32.2786 197.865 32.5208 198.419 32.5208H208.163V40.3974H197.843V59.1968C197.843 63.8488 198.813 65.6587 202.536 65.6587C204.471 65.6587 206.447 65.1081 208.132 64.3994L209.998 71.3329" fill="#3F3F3F"/>
<path d="M93.2134 49.1916L51.7266 2.03648C49.3402 -0.678825 45.4651 -0.678825 43.0742 2.03648L34.4621 11.8289L45.3867 24.2475C47.9276 23.2728 50.8378 23.9294 52.8571 26.2248C53.8213 27.3226 54.4944 28.7065 54.7996 30.2185C55.1048 31.7304 55.0298 33.3095 54.5831 34.7753L65.1138 46.746C67.6323 45.7485 70.5985 46.3974 72.6357 48.7055C73.5408 49.7323 74.1919 51.012 74.5234 52.4159C74.8549 53.8197 74.855 55.2981 74.5239 56.702C74.1927 58.106 73.5418 59.3859 72.637 60.4129C71.7321 61.4399 70.6051 62.1776 69.3695 62.5518C68.1351 62.9281 66.8353 62.9282 65.6009 62.552C64.3666 62.1759 63.2411 61.4368 62.3378 60.4091C60.1999 57.9763 59.6738 54.4034 60.7551 51.4081L50.961 40.2746V69.6543C51.6326 70.0462 52.3086 70.5628 52.8862 71.2194C55.7293 74.4513 55.7293 79.6885 52.8862 82.9255C52.2105 83.6945 51.408 84.3046 50.5247 84.7209C49.6414 85.1372 48.6946 85.3514 47.7384 85.3514C46.7822 85.3514 45.8354 85.1372 44.9521 84.7209C44.0688 84.3046 43.2663 83.6945 42.5906 82.9255C39.7475 79.6859 39.7475 74.4513 42.5906 71.2194C43.2729 70.4445 44.0831 69.8304 44.9748 69.4126V39.7657C44.1353 39.3585 43.2958 38.763 42.5906 37.9843C41.5689 36.8235 40.8742 35.3433 40.5952 33.7322C40.3161 32.1211 40.4652 30.452 41.0236 28.9375L30.2511 16.6894L1.7866 48.9702C0.642374 50.2769 0 52.0456 0 53.8893C0 55.733 0.642374 57.5017 1.7866 58.8084L43.2757 105.964C45.6621 108.679 49.5372 108.679 51.9281 105.964L93.2134 59.0298C94.3576 57.7231 95 55.9544 95 54.1107C95 52.267 94.3576 50.4983 93.2134 49.1916Z" fill="#3F3F3F"/>
</svg>
