<svg width="303" height="86" viewBox="0 0 303 86" fill="none" xmlns="http://www.w3.org/2000/svg">
<path d="M278.395 30.3257C277.658 30.3257 276.941 30.4779 276.307 30.8367L256.243 42.4238C254.944 43.1716 254.155 44.5849 254.155 46.0876V69.2204C254.155 70.7226 254.944 72.1335 256.243 72.8837L261.483 75.9033C264.029 77.1586 264.968 77.1384 266.126 77.1384C269.896 77.1384 272.047 74.8512 272.047 70.8759V48.0539C272.047 47.7313 271.768 47.5003 271.451 47.5003H268.938C268.616 47.5003 268.341 47.7372 268.341 48.0539V70.8878C268.341 72.6498 266.506 74.4225 263.528 72.9328L258.081 69.7379C257.888 69.6331 257.739 69.4419 257.739 69.227V46.0941C257.739 45.8751 257.886 45.6513 258.081 45.5405L278.103 33.9948C278.291 33.8871 278.514 33.8871 278.699 33.9948L298.722 45.5405C298.913 45.6548 299.063 45.868 299.063 46.0941V69.227C299.063 69.4478 298.952 69.674 298.765 69.7806L278.7 81.3262C278.522 81.4287 278.285 81.4287 278.104 81.3262L272.949 78.2592C272.795 78.1692 272.586 78.1764 272.438 78.2592C271.015 79.0657 270.748 79.1592 269.414 79.6222C269.085 79.7365 268.585 79.9147 269.584 80.4748L276.315 84.4418C276.956 84.8125 277.67 84.9954 278.403 84.9954C279.146 84.9954 279.849 84.8178 280.49 84.4418L300.555 72.8961C301.853 72.1406 302.643 70.735 302.643 69.2329V46.1001C302.643 44.5973 301.853 43.187 300.555 42.4362L280.49 30.8491C279.862 30.4903 279.14 30.3381 278.403 30.3381L278.395 30.3257ZM283.763 46.8556C278.049 46.8556 274.647 49.2873 274.647 53.3306C274.647 57.7121 278.024 58.9223 283.508 59.4646C290.068 60.1071 290.58 61.0704 290.58 62.3617C290.58 64.6016 288.794 65.5566 284.573 65.5566C279.27 65.5566 278.104 64.2327 277.714 61.5896C277.668 61.3066 277.45 61.0787 277.161 61.0787H274.555C274.398 61.0821 274.249 61.1461 274.138 61.2571C274.026 61.3682 273.963 61.5179 273.959 61.6749C273.959 65.0516 275.796 69.0446 284.567 69.0446C290.916 69.0446 294.578 66.5578 294.578 62.1859C294.578 57.8636 291.62 56.6954 285.462 55.8801C279.245 55.0512 278.645 54.6545 278.645 53.1962C278.645 51.9931 279.149 50.3838 283.758 50.3838C287.874 50.3838 289.396 51.2719 290.02 54.0476C290.075 54.3082 290.304 54.5213 290.574 54.5213H293.179C293.339 54.5213 293.494 54.423 293.605 54.3082C293.714 54.1856 293.791 54.0476 293.776 53.8819C293.373 49.1013 290.185 46.8526 283.765 46.8526L283.763 46.8556Z" fill="#313131"/>
<path d="M160.434 0.000774368C160.209 0.00117902 159.989 0.0599477 159.795 0.171295C159.601 0.284544 159.44 0.446261 159.328 0.640513C159.216 0.834766 159.157 1.05485 159.156 1.27909V33.8687C159.156 34.1884 159.007 34.475 158.73 34.6355C158.594 34.7146 158.439 34.7563 158.282 34.7563C158.125 34.7563 157.971 34.7146 157.835 34.6355L152.51 31.5685C152.121 31.3437 151.68 31.2254 151.232 31.2254C150.783 31.2254 150.342 31.3437 149.954 31.5685L128.697 43.8371C127.902 44.2954 127.418 45.1776 127.418 46.0947V70.6326C127.417 71.0816 127.535 71.5228 127.759 71.9117C127.984 72.3007 128.307 72.6235 128.696 72.8476L149.954 85.1168C150.342 85.3421 150.783 85.4608 151.232 85.4608C151.681 85.4608 152.121 85.3421 152.51 85.1168L173.767 72.8476C174.156 72.6235 174.48 72.3007 174.704 71.9117C174.928 71.5228 175.046 71.0816 175.046 70.6326V9.45817C175.046 8.52741 174.538 7.65409 173.725 7.20055L161.073 0.128073C160.874 0.0173528 160.654 -0.00159398 160.434 0.000774368ZM23.6853 30.6306C23.2797 30.6472 22.899 30.7176 22.5348 30.929L1.27773 43.1976C0.888326 43.4213 0.56502 43.7441 0.340619 44.1331C0.116218 44.5221 -0.00129197 44.9635 1.07141e-05 45.4126L0.043233 78.3439C0.043233 78.8022 0.280068 79.2273 0.682687 79.4511C1.07761 79.6879 1.56726 79.6879 1.96041 79.4511L14.5701 72.2087C15.3694 71.735 15.8904 70.9085 15.8904 69.9943V54.6148C15.8904 53.6971 16.373 52.8563 17.1693 52.4004L22.5372 49.2908C22.9251 49.0652 23.3662 48.9475 23.8149 48.9498C24.2639 48.9471 24.7053 49.0649 25.0932 49.2908L30.4587 52.3987C31.2539 52.8546 31.7364 53.6965 31.7364 54.6131V69.9919C31.7364 70.9073 32.2693 71.7386 33.0568 72.2063L45.6665 79.4487C46.0632 79.6856 46.5516 79.6856 46.9442 79.4487C47.335 79.2237 47.5836 78.7992 47.5836 78.3415L47.6263 45.4115C47.6288 44.9621 47.5118 44.5202 47.2873 44.131C47.0628 43.7418 46.7388 43.4192 46.3486 43.1965L25.0915 30.9284C24.7321 30.7176 24.3496 30.6466 23.941 30.63H23.6864L23.6853 30.6306ZM214.707 30.929C214.258 30.9278 213.817 31.0454 213.428 31.2701L192.171 43.5393C191.377 43.9981 190.892 44.8371 190.892 45.7537V70.2915C190.892 71.214 191.412 72.05 192.212 72.5059L213.299 84.5253C214.078 84.9693 215.028 85.0031 215.813 84.5667L228.593 77.4522C228.998 77.2272 229.273 76.8068 229.274 76.345C229.275 75.8832 229.035 75.4675 228.634 75.2378L207.248 62.9686C206.848 62.7401 206.567 62.2776 206.567 61.8182V54.1453C206.567 53.687 206.851 53.2667 207.248 53.0381L213.894 49.2038C214.289 48.9752 214.775 48.9752 215.173 49.2038L221.821 53.0381C222.016 53.1499 222.177 53.3113 222.29 53.5057C222.402 53.7002 222.461 53.9208 222.46 54.1453V60.1947C222.459 60.4192 222.518 60.6398 222.63 60.8343C222.743 61.0287 222.904 61.19 223.099 61.3019C223.497 61.5316 223.98 61.5328 224.378 61.3019L237.115 53.8907C237.905 53.4313 238.394 52.5899 238.394 51.6763V45.7555C238.394 45.3065 238.276 44.8655 238.051 44.4767C237.827 44.0879 237.504 43.765 237.115 43.5405L215.986 31.2712C215.597 31.0464 215.156 30.9287 214.707 30.9302L214.707 30.929ZM151.146 49.2482C151.265 49.2476 151.382 49.2767 151.487 49.3328L158.772 53.5503C158.969 53.6645 159.113 53.8759 159.113 54.1039V62.5387C159.113 62.7679 158.971 62.9787 158.772 63.0923L151.487 67.3098C151.289 67.4223 151.047 67.4223 150.848 67.3098L143.563 63.0923C143.365 62.9781 143.222 62.7667 143.222 62.5387V54.1027C143.222 53.8741 143.365 53.6645 143.563 53.5491L150.848 49.3322C150.947 49.2748 151.035 49.2482 151.146 49.2482Z" fill="#3F3F3F"/>
<path d="M87.5442 30.8005C87.0953 30.7998 86.6541 30.9174 86.2653 31.1416L65.0076 43.3682C64.213 43.8264 63.7298 44.7092 63.7298 45.6258V70.1636C63.7286 70.6126 63.8462 71.054 64.0706 71.4429C64.295 71.8317 64.6182 72.1544 65.0076 72.378L86.2653 84.6473C86.6535 84.8726 87.0944 84.9913 87.5433 84.9913C87.9922 84.9913 88.4331 84.8726 88.8213 84.6473L110.079 72.378C110.468 72.1539 110.791 71.8311 111.016 71.4422C111.24 71.0533 111.358 70.6121 111.357 70.1631V45.6252C111.357 44.7075 110.874 43.8253 110.078 43.3676L88.8207 31.141C88.4322 30.9158 87.9908 30.798 87.5418 30.7999L87.5442 30.8005ZM214.665 52.6977C214.58 52.6977 214.486 52.6977 214.409 52.7391L210.32 55.1252C210.244 55.1676 210.18 55.2292 210.135 55.3039C210.09 55.3786 210.066 55.4638 210.064 55.5509V60.2373C210.064 60.4138 210.166 60.5748 210.32 60.6636L214.409 63.0065C214.48 63.05 214.561 63.0731 214.643 63.0731C214.726 63.0731 214.807 63.05 214.877 63.0065L218.967 60.6636C219.118 60.5766 219.222 60.4138 219.222 60.2373V55.5509C219.222 55.3745 219.119 55.2135 218.967 55.1246L214.877 52.7385C214.801 52.6935 214.749 52.6971 214.664 52.6971L214.665 52.6977Z" fill="#2D2D2D"/>
</svg>
