<svg width="413" height="68" viewBox="0 0 413 68" fill="none" xmlns="http://www.w3.org/2000/svg">
<path fill-rule="evenodd" clip-rule="evenodd" d="M27.5912 22.601C31.2675 7.53367 40.4677 0 55.1824 0C77.2591 0 80.0132 16.9427 91.0484 19.7718C98.4074 21.6569 104.844 18.8342 110.362 11.3005C106.685 26.3646 97.4851 33.8983 82.7736 33.8983C60.6968 33.8983 57.9428 16.9556 46.9076 14.1264C39.5486 12.2414 33.112 15.0641 27.5944 22.5978L27.5912 22.601ZM0 56.4993C3.68262 41.4319 12.8734 33.8983 27.5912 33.8983C49.6679 33.8983 52.422 50.8409 63.4572 53.6701C70.8161 55.5551 77.2528 52.7324 82.7704 45.1988C79.0941 60.2661 69.8939 67.7998 55.1792 67.7998C33.1025 67.7998 30.3484 50.8571 19.3132 48.0279C11.9543 46.1429 5.51761 48.9656 0 56.4993Z" fill="#3F3F3F"/>
<path fill-rule="evenodd" clip-rule="evenodd" d="M133.405 22.2701H123V15.914H151.071V22.2701H140.671V51.0999H133.405V22.2701ZM164.661 47.8476C163.698 48.9661 162.561 49.9145 161.294 50.6545C160.057 51.3783 158.451 51.7402 156.481 51.7402C155.394 51.7456 154.311 51.5956 153.264 51.2948C152.245 50.9979 151.353 50.5386 150.598 49.9169C149.843 49.2952 149.233 48.5018 148.787 47.5275C148.342 46.5532 148.105 45.4026 148.105 44.0479C148.105 42.2756 148.492 40.8281 149.27 39.71C150.049 38.5873 151.099 37.6878 152.318 37.0979C153.574 36.4716 154.984 36.0308 156.549 35.7664C158.128 35.5012 159.722 35.337 161.322 35.2746L164.561 35.1261V33.8456C164.561 32.2682 164.138 31.1826 163.278 30.598C162.418 30.0134 161.413 29.7165 160.257 29.7165C157.573 29.7165 156.044 30.7511 155.662 32.825L149.474 32.2357C149.92 29.5448 151.085 27.5962 152.955 26.39C154.825 25.1837 157.345 24.5898 160.507 24.5898C162.441 24.5898 164.088 24.8218 165.444 25.3043C166.799 25.7868 167.891 26.4642 168.71 27.3457C169.55 28.2624 170.164 29.3691 170.503 30.5748C170.876 31.8367 171.058 33.2657 171.058 34.8431V51.1046H164.661V47.8569V47.8476ZM164.516 39.6172L161.513 39.7656C160.093 39.826 158.947 39.9791 158.078 40.211C157.209 40.443 156.531 40.7307 156.076 41.074C155.621 41.4173 155.289 41.8163 155.134 42.2803C154.979 42.7442 154.893 43.2545 154.893 43.8113C154.893 44.665 155.184 45.3423 155.757 45.8295C156.331 46.3166 157.145 46.5718 158.169 46.5718C159.916 46.5718 161.335 46.1635 162.427 45.3377C163.041 44.8737 163.546 44.2892 163.929 43.5886C164.311 42.888 164.506 42.0019 164.506 40.9534V39.6218L164.516 39.6172ZM176.554 25.3739H183.333V51.0953H176.554V25.3739ZM176.463 15.9093H183.424V22.117H176.463V15.9093ZM189.129 15.9093H195.908V51.0953H189.129V15.9093ZM198.943 25.3739H206.295L209.83 42.4241L214.662 25.6198H220.567L225.117 42.4751L228.652 25.425H235.718L228.361 51.1463H221.777L217.273 34.1936L212.724 51.1463H206.29L198.938 25.425L198.943 25.3739ZM238.798 25.3739H245.577V51.0953H238.798V25.3739ZM238.707 15.9093H245.668V22.117H238.707V15.9093ZM251.327 25.3739H257.911V28.9231C258.912 27.4153 260.095 26.3111 261.46 25.6198C262.824 24.9285 264.258 24.5852 265.736 24.5852C268.612 24.5852 270.741 25.3507 272.128 26.8771C273.516 28.4035 274.212 30.8114 274.212 34.0962V51.0953H267.438V35.038C267.438 33.1822 267.101 31.9991 266.419 31.3403C265.736 30.6815 264.84 30.3567 263.712 30.3567C262.847 30.3567 262.092 30.4959 261.46 30.7511C260.827 31.0063 260.24 31.3913 259.694 31.8831C259.239 32.3471 258.862 32.8945 258.557 33.5348C258.252 34.1881 258.096 34.9036 258.102 35.6272V51.0999H251.277V25.3786L251.327 25.3739ZM297.188 47.6992C296.339 49.0201 295.173 50.0981 293.802 50.8313C292.43 51.5644 290.897 51.9284 289.349 51.8887C285.8 51.8887 283.161 50.6731 281.41 48.242C279.658 45.8109 278.798 42.4426 278.798 38.1418C278.778 36.2825 279.033 34.4306 279.554 32.6487C280.054 30.9877 280.768 29.5588 281.705 28.3618C282.626 27.1771 283.801 26.2245 285.14 25.5781C286.505 24.9285 288.03 24.5945 289.736 24.5945C290.991 24.5945 292.238 24.8265 293.48 25.2904C294.722 25.7544 295.891 26.6823 296.992 27.9535V15.9279H303.771V51.1138H297.193V47.7131L297.188 47.6992ZM297.042 37.9423C297.042 36.2999 296.906 34.987 296.587 33.9988C296.269 33.0105 295.869 32.2125 295.259 31.5862C294.677 30.997 294.04 30.6583 293.348 30.4263C292.678 30.2476 291.989 30.1571 291.296 30.1572C290.571 30.1539 289.854 30.3057 289.19 30.6026C288.525 30.8996 287.952 31.3589 287.447 31.9806C286.942 32.6023 286.551 33.4281 286.264 34.4395C285.978 35.4509 285.827 36.6665 285.827 38.0861C285.827 39.6265 285.964 40.9162 286.282 41.9555C286.601 42.9947 286.933 43.8298 287.42 44.4701C287.907 45.1103 288.466 45.5697 289.112 45.848C289.758 46.1264 290.454 46.312 291.196 46.312C292.807 46.312 294.131 45.8341 295.163 44.883C295.815 44.2113 296.303 43.3929 296.587 42.4937C296.888 41.5565 297.042 40.3502 297.042 38.8749V37.9934V37.9423ZM350.009 38.9259C349.846 40.8002 349.418 42.5308 348.726 44.1221C348.055 45.6813 347.085 47.0882 345.874 48.2606C344.59 49.475 343.073 50.4054 341.42 50.9932C339.664 51.6428 337.625 51.9768 335.3 51.9768C332.689 51.9768 330.387 51.5314 328.403 50.6453C326.482 49.8056 324.777 48.5242 323.421 46.9012C322.079 45.2913 321.074 43.3427 320.396 41.0554C319.718 38.7682 319.381 36.2489 319.381 33.493C319.381 30.6351 319.745 28.0741 320.491 25.8054C321.237 23.5367 322.302 21.602 323.685 19.9921C325.068 18.3822 326.752 17.1481 328.717 16.2944C330.682 15.4408 332.916 15.0139 335.405 15.0139C337.598 15.0139 339.513 15.2923 341.138 15.849C342.762 16.4058 344.14 17.213 345.255 18.2616C346.37 19.3101 347.257 20.5813 347.939 22.0567C348.648 23.6426 349.152 25.3162 349.436 27.0349L342.27 27.972C341.916 25.9028 341.224 24.2744 340.223 23.0913C339.222 21.9082 337.593 21.319 335.4 21.319C332.625 21.319 330.519 22.3768 329.09 24.4971C327.662 26.6173 326.929 29.6098 326.929 33.4884C326.929 37.3995 327.702 40.4477 329.231 42.5076C329.923 43.5129 330.849 44.3274 331.926 44.878C333.003 45.4286 334.196 45.6981 335.4 45.6624C337.63 45.6624 339.268 45.0779 340.314 43.9134C341.361 42.7488 342.011 41.0833 342.27 38.912L350.009 38.9259ZM360.551 39.6218C360.71 41.7885 361.397 43.3659 362.598 44.3541C363.799 45.3423 365.587 45.8388 367.944 45.8388C369.072 45.8388 370.028 45.7135 370.801 45.4676C371.575 45.2217 372.203 44.8923 372.689 44.484C373.154 44.1009 373.512 43.6002 373.727 43.0319C373.942 42.4492 374.048 41.8309 374.041 41.2085C374.041 40.2806 373.709 39.4223 373.031 38.6197C372.353 37.8171 371.111 37.2278 369.3 36.8706L364.796 36.0355C362.976 35.7107 361.456 35.2792 360.101 34.755C358.745 34.2307 357.607 33.5487 356.688 32.7136C355.769 31.8785 355.069 30.8485 354.586 29.633C354.104 28.4174 353.858 26.9699 353.858 25.295C353.829 23.7562 354.169 22.2333 354.85 20.8597C355.508 19.585 356.453 18.4878 357.607 17.6584C358.79 16.8048 360.201 16.1552 361.839 15.7098C363.476 15.2645 365.296 15.0464 367.262 15.0464C369.778 15.0464 371.875 15.3433 373.554 15.9279C375.233 16.5125 376.588 17.2966 377.621 18.2708C378.654 19.2451 379.418 20.3586 379.919 21.6484C380.419 22.9382 380.751 24.2604 380.92 25.6384L374.095 26.5199C373.74 24.5806 373.058 23.1794 372.048 22.3304C371.038 21.4814 369.491 21.0499 367.425 21.0499C366.197 21.0499 365.196 21.1566 364.4 21.3747C363.604 21.5927 362.971 21.8665 362.489 22.2098C362.045 22.5061 361.692 22.9242 361.47 23.4161C361.279 23.88 361.179 24.3532 361.179 24.845C361.179 26.158 361.543 27.1462 362.271 27.8004C362.999 28.4545 364.227 28.9695 365.97 29.3314L370.71 30.2686C374.455 31.0248 377.198 32.2497 378.945 33.9338C380.692 35.6179 381.557 38.1093 381.557 41.2503C381.557 42.7906 381.275 44.2196 380.71 45.5186C380.132 46.8313 379.27 47.9937 378.19 48.9194C376.96 49.9553 375.538 50.727 374.009 51.1881C372.335 51.7309 370.369 52 368.103 52C363.39 52 359.787 50.9793 357.289 48.9194C354.791 46.8594 353.44 43.8159 353.194 39.6311H360.501L360.551 39.6218ZM391.944 39.6218C392.103 41.7885 392.79 43.3659 393.991 44.3541C395.192 45.3423 396.994 45.8388 399.337 45.8388C400.474 45.8388 401.42 45.7135 402.203 45.4676C402.986 45.2217 403.604 44.8923 404.091 44.484C404.556 44.1009 404.913 43.6002 405.128 43.0319C405.343 42.4492 405.45 41.8309 405.442 41.2085C405.429 40.2475 405.067 39.3255 404.428 38.6197C403.745 37.8171 402.508 37.2278 400.697 36.8706L396.193 36.0355C394.373 35.7107 392.853 35.2792 391.498 34.755C390.142 34.2307 389.004 33.5487 388.085 32.7136C387.166 31.8785 386.466 30.8485 385.979 29.633C385.492 28.4174 385.251 26.9699 385.251 25.295C385.221 23.7562 385.562 22.2333 386.243 20.8597C386.907 19.5792 387.826 18.5075 389 17.612C390.174 16.7166 391.593 16.1088 393.231 15.6634C394.869 15.2181 396.689 15 398.654 15C401.17 15 403.268 15.2969 404.946 15.8815C406.625 16.4661 407.977 17.2502 409.014 18.2244C410.051 19.1987 410.816 20.3122 411.311 21.602C411.807 22.8918 412.144 24.214 412.312 25.592L405.488 26.4735C405.133 24.5342 404.451 23.133 403.441 22.284C402.43 21.435 400.884 21.0035 398.818 21.0035C397.59 21.0035 396.589 21.1102 395.793 21.3283C394.996 21.5463 394.364 21.8201 393.882 22.1634C393.437 22.4597 393.084 22.8778 392.863 23.3697C392.667 23.8336 392.571 24.3068 392.571 24.7986C392.571 26.1116 392.935 27.0998 393.663 27.754C394.391 28.4082 395.62 28.9231 397.367 29.285L402.153 30.2593C405.897 31.0155 408.641 32.2404 410.388 33.9245C412.135 35.6087 412.999 38.1001 412.999 41.241C413.015 42.7072 412.727 44.1603 412.153 45.5047C411.576 46.8182 410.714 47.9809 409.633 48.9055C408.522 49.8798 407.13 50.6313 405.447 51.1788C403.764 51.7263 401.807 51.9907 399.546 51.9907C394.833 51.9907 391.229 50.97 388.727 48.9101C386.225 46.8502 384.878 43.8066 384.687 39.6218H391.944Z" fill="#3F3F3F"/>
</svg>
