<svg width="638" height="134" viewBox="0 0 638 134" fill="none" xmlns="http://www.w3.org/2000/svg">
<g filter="url(#filter0_d_0_1)">
<path fill-rule="evenodd" clip-rule="evenodd" d="M321.266 91.3281V83.9927C329.022 88.2337 336.877 90.3537 344.835 90.3537C353.295 90.3537 359.716 88.8503 364.097 85.8428C368.478 82.8352 370.669 78.6271 370.669 73.2177C370.669 68.4579 369.196 64.6607 366.25 61.8261C363.409 59.0932 357.373 55.4048 348.14 50.76L347.101 50.2403C336.122 44.7441 329.172 40.1463 326.252 36.4469C323.331 32.7467 321.871 28.4737 321.871 23.627C321.871 17.0495 324.841 11.4674 330.784 6.88038C336.727 2.29344 344.659 0 354.579 0C361.025 0 367.471 0.930364 373.917 2.79109V9.54172C367.572 7.0751 360.798 5.84186 353.597 5.84186C346.245 5.84186 340.415 7.44292 336.11 10.6452C331.804 13.8474 329.651 17.915 329.651 22.8483C329.651 27.6081 331.124 31.3943 334.07 34.207C337.016 37.0197 343.374 40.8498 353.144 45.6965C363.266 50.6293 370.002 55.0111 373.35 58.8404C376.7 62.6705 378.374 67.0735 378.374 72.0493C378.374 79.1898 375.491 85.0101 369.725 89.5101C363.958 94.0109 355.813 96.2609 345.288 96.2609C341.561 96.2609 337.268 95.7631 332.409 94.7676C327.549 93.773 323.834 92.6257 321.266 91.3281ZM52.7937 14.684H83.7698V1.56522H4V14.684H34.9008V94.6956H52.7937V14.684ZM112.324 105.344L147.223 28.1739H129.547L110.209 76.6323C109.75 78.1177 109.39 79.3268 109.13 80.2604L108.849 81.3091H108.471C108.069 79.8245 107.748 78.6647 107.509 77.8304L107.112 76.5023L88.6802 28.1739H69.2662L100.011 94.5603L94.7989 105.474C91.5754 111.016 86.6904 113.788 80.1439 113.788C77.8777 113.788 75.3595 113.398 72.5902 112.619V125.156C75.0576 125.718 78.1297 126 81.8055 126C94.8995 126 105.072 119.115 112.324 105.344ZM175.91 84.8395H175.608V125.217H158.101V28.1669H175.608V39.852H175.91C181.897 31.0226 190.65 26.6087 202.172 26.6087C211.982 26.6087 219.629 29.5732 225.113 35.5023C230.596 41.4313 233.338 49.3944 233.338 59.3914C233.338 70.4708 230.244 79.3424 224.056 86.0079C217.868 92.6726 209.416 96.005 198.7 96.005C188.839 96.005 181.243 92.2829 175.91 84.8395ZM175.324 67.2175V59.0173C175.324 53.3356 177.221 48.6008 181.016 44.8122C184.811 41.0243 189.825 39.1304 196.058 39.1304C201.939 39.1304 206.601 40.9703 210.044 44.651C213.487 48.3316 215.209 53.4216 215.209 59.9212C215.209 67.6698 213.361 73.7069 209.667 78.0323C205.973 82.3586 200.884 84.5217 194.399 84.5217C188.87 84.5217 184.309 82.843 180.715 79.4857C177.12 76.1283 175.324 72.0384 175.324 67.2175ZM312.201 65.5278H259.983C260.183 71.6791 262.365 76.4217 266.53 79.7572C270.694 83.0927 276.417 84.7604 283.698 84.7604C291.878 84.7604 299.384 82.638 306.217 78.3931V90.5431C299.234 94.3552 290.007 96.2609 278.537 96.2609C267.265 96.2609 258.425 93.2392 252.016 87.1967C245.607 81.1542 242.403 72.6535 242.403 61.6946C242.403 51.3423 245.932 42.9065 252.989 36.3874C260.046 29.8683 268.811 26.6087 279.285 26.6087C289.758 26.6087 297.863 29.5325 303.598 35.3802C309.333 41.2278 312.201 49.3497 312.201 59.7451V65.5278ZM291.485 42.0981C294.368 45.1197 295.835 49.3482 295.885 54.7826H260.532C261.328 49.6518 263.454 45.5001 266.909 42.3258C270.365 39.1523 274.579 37.5652 279.551 37.5652C284.623 37.5652 288.6 39.0764 291.485 42.0981ZM422.707 96.2609C430.696 96.2609 437.572 94.7473 443.337 91.721V85.4953C437.572 89.0405 430.797 90.8131 423.011 90.8131C414.515 90.8131 407.677 88.1976 402.495 82.9659C397.311 77.7342 394.72 70.8167 394.72 62.2127C394.72 53.3066 397.551 46.0542 403.215 40.4546C408.878 34.8558 416.26 32.0564 425.361 32.0564C431.986 32.0564 438.078 33.5262 443.64 36.4664V29.7219C438.078 27.6464 432.339 26.6087 426.424 26.6087C414.996 26.6087 405.642 29.97 398.361 36.6934C391.079 43.4168 387.439 52.0529 387.439 62.6024C387.439 72.6331 390.675 80.7503 397.147 86.9541C403.619 93.1586 412.139 96.2609 422.707 96.2609ZM488.964 34.1742C486.662 32.7389 483.959 32.022 480.857 32.022C474.8 32.022 469.721 34.7392 465.617 40.1737C461.513 45.6089 459.461 53.3262 459.461 63.3264V94.6956H452.705V27.9133H459.461V42.7171H459.762C461.513 37.6302 464.291 33.6741 468.094 30.8481C471.898 28.0221 476.302 26.6087 481.307 26.6087C484.16 26.6087 486.712 27 488.964 27.7826V34.1742ZM499.789 10.2666C500.962 11.2483 502.314 11.7391 503.845 11.7391C505.476 11.7391 506.88 11.226 508.053 10.1997C509.226 9.17335 509.813 7.94622 509.813 6.51827C509.813 5.00111 509.214 3.79636 508.014 2.90387C506.816 2.01146 505.426 1.56522 503.845 1.56522C502.365 1.56522 501.026 2.02258 499.827 2.93737C498.628 3.85216 498.029 5.04579 498.029 6.51827C498.029 8.03552 498.615 9.28487 499.789 10.2666ZM499.842 94.6956V28.1739H507.094V94.6956H499.842ZM530.321 82.8548H530.621C536.13 91.807 544.643 96.2836 556.161 96.2836C566.477 96.2836 574.777 92.8557 581.062 86.0009C587.346 79.146 590.489 70.1609 590.489 59.0455C590.489 49.0555 587.747 41.1511 582.264 35.334C576.781 29.5169 569.156 26.6087 559.391 26.6087C553.231 26.6087 547.585 27.9383 542.452 30.5984C537.319 33.2585 533.376 37.0315 530.621 41.9189H530.321V28.2303H523.41V125.217H530.321V82.8548ZM530.662 58.1306V66.4881C530.662 73.1395 533.115 78.851 538.021 83.6241C542.926 88.3964 549.374 90.7826 557.365 90.7826C565.306 90.7826 571.753 87.8783 576.71 82.069C581.666 76.2597 584.144 68.6262 584.144 59.1676C584.144 50.875 581.868 44.2886 577.316 39.4075C572.765 34.5271 566.696 32.087 559.11 32.087C550.057 32.087 543.052 34.6782 538.096 39.8614C533.14 45.0438 530.662 51.1341 530.662 58.1306ZM623.915 96.2609C627.052 96.2609 630.414 95.5268 634 94.0586V88.4872C630.713 90.0853 627.65 90.8844 624.811 90.8844C620.826 90.8844 618 89.8583 616.331 87.8071C614.663 85.7559 613.828 82.4416 613.828 77.8633V34.0724H634V28.631H613.828V9.3913C612.732 9.73683 611.587 10.0607 610.392 10.363C609.196 10.7085 608.051 11.054 606.955 11.3995V28.631H593.209V34.0724H606.955V78.6404C606.955 90.3874 612.608 96.2609 623.915 96.2609Z" fill="#414141"/>
</g>
<defs>
<filter id="filter0_d_0_1" x="0" y="0" width="638" height="134" filterUnits="userSpaceOnUse" color-interpolation-filters="sRGB">
<feFlood flood-opacity="0" result="BackgroundImageFix"/>
<feColorMatrix in="SourceAlpha" type="matrix" values="0 0 0 0 0 0 0 0 0 0 0 0 0 0 0 0 0 0 127 0" result="hardAlpha"/>
<feOffset dy="4"/>
<feGaussianBlur stdDeviation="2"/>
<feComposite in2="hardAlpha" operator="out"/>
<feColorMatrix type="matrix" values="0 0 0 0 0 0 0 0 0 0 0 0 0 0 0 0 0 0 0.25 0"/>
<feBlend mode="normal" in2="BackgroundImageFix" result="effect1_dropShadow_0_1"/>
<feBlend mode="normal" in="SourceGraphic" in2="effect1_dropShadow_0_1" result="shape"/>
</filter>
</defs>
</svg>
