<svg width="352" height="77" viewBox="0 0 352 77" fill="none" xmlns="http://www.w3.org/2000/svg">
<g filter="url(#filter0_d_0_1)">
<path fill-rule="evenodd" clip-rule="evenodd" d="M177.054 49.7534V45.7572C181.285 48.0676 185.569 49.2225 189.91 49.2225C194.525 49.2225 198.027 48.4035 200.417 46.7651C202.806 45.1266 204.001 42.8342 204.001 39.8873C204.001 37.2942 203.198 35.2256 201.591 33.6814C200.041 32.1926 196.749 30.1832 191.713 27.6528L191.146 27.3697C185.157 24.3755 181.367 21.8707 179.774 19.8554C178.181 17.8396 177.384 15.5118 177.384 12.8714C177.384 9.28816 179.004 6.24717 182.246 3.74827C185.487 1.24941 189.814 0 195.225 0C198.741 0 202.257 0.50684 205.773 1.52052V5.1981C202.312 3.85435 198.617 3.18251 194.689 3.18251C190.679 3.18251 187.499 4.05473 185.151 5.79925C182.802 7.54373 181.628 9.75967 181.628 12.4472C181.628 15.0402 182.431 17.1029 184.038 18.6352C185.645 20.1674 189.113 22.254 194.442 24.8944C199.963 27.5816 203.637 29.9687 205.464 32.0548C207.291 34.1414 208.204 36.54 208.204 39.2507C208.204 43.1407 206.631 46.3115 203.486 48.763C200.341 51.2149 195.898 52.4406 190.157 52.4406C188.124 52.4406 185.783 52.1695 183.132 51.6271C180.481 51.0853 178.455 50.4603 177.054 49.7534ZM30.6147 7.99949H47.5108V0.852695H4V7.99949H20.855V51.5879H30.6147V7.99949ZM63.0858 57.3889L82.1216 15.3485H72.4802L61.9322 41.7474C61.6818 42.5567 61.4854 43.2153 61.3436 43.724L61.1904 44.2953H60.9842C60.7649 43.4865 60.5898 42.8547 60.4595 42.4001L60.2429 41.6766L50.1892 15.3485H39.5997L56.3696 51.5142L53.5267 57.4597C51.7684 60.4789 49.1038 61.989 45.533 61.989C44.2969 61.989 42.9234 61.7765 41.4128 61.3521V68.182C42.7587 68.4882 44.4344 68.6418 46.4394 68.6418C53.5815 68.6418 59.1302 64.891 63.0858 57.3889ZM97.7691 46.2185H97.6044V68.2152H88.0551V15.3447H97.6044V21.7104H97.7691C101.035 16.9004 105.809 14.4958 112.094 14.4958C117.445 14.4958 121.616 16.1108 124.607 19.3408C127.598 22.5708 129.093 26.9089 129.093 32.355C129.093 38.3908 127.406 43.2238 124.031 46.855C120.655 50.4858 116.045 52.3012 110.2 52.3012C104.821 52.3012 100.678 50.2735 97.7691 46.2185ZM97.4494 36.6185V32.1512C97.4494 29.056 98.4842 26.4766 100.554 24.4126C102.624 22.3491 105.359 21.3173 108.759 21.3173C111.967 21.3173 114.51 22.3196 116.388 24.3248C118.266 26.3299 119.205 29.1028 119.205 32.6436C119.205 36.8649 118.197 40.1538 116.182 42.5101C114.167 44.867 111.391 46.0454 107.854 46.0454C104.838 46.0454 102.35 45.1309 100.39 43.3019C98.4291 41.4729 97.4494 39.2448 97.4494 36.6185ZM172.11 35.698H143.627C143.736 39.0491 144.926 41.6327 147.198 43.4498C149.469 45.2669 152.591 46.1754 156.563 46.1754C161.024 46.1754 165.119 45.0192 168.846 42.7067V49.3257C165.037 51.4025 160.004 52.4406 153.747 52.4406C147.599 52.4406 142.777 50.7945 139.281 47.5027C135.786 44.2109 134.038 39.5799 134.038 33.6097C134.038 27.9701 135.963 23.3744 139.812 19.823C143.661 16.2715 148.442 14.4958 154.155 14.4958C159.868 14.4958 164.289 16.0886 167.417 19.2743C170.545 22.4599 172.11 26.8845 172.11 32.5477V35.698ZM160.81 22.934C162.383 24.5801 163.183 26.8837 163.21 29.8443H143.927C144.361 27.0491 145.52 24.7874 147.405 23.0581C149.29 21.3292 151.589 20.4646 154.301 20.4646C157.067 20.4646 159.236 21.2879 160.81 22.934ZM232.386 52.4406C236.743 52.4406 240.494 51.6161 243.638 49.9674V46.5758C240.494 48.5071 236.798 49.4728 232.551 49.4728C227.917 49.4728 224.187 48.0479 221.361 45.1978C218.533 42.3477 217.12 38.5792 217.12 33.892C217.12 29.0402 218.664 25.0892 221.754 22.0387C224.843 18.9886 228.869 17.4636 233.833 17.4636C237.447 17.4636 240.77 18.2643 243.804 19.866V16.1918C240.77 15.0611 237.639 14.4958 234.413 14.4958C228.18 14.4958 223.077 16.3269 219.106 19.9897C215.134 23.6524 213.149 28.3572 213.149 34.1043C213.149 39.5688 214.914 43.9908 218.444 47.3705C221.974 50.7506 226.621 52.4406 232.386 52.4406ZM268.526 18.6173C267.27 17.8354 265.796 17.4448 264.104 17.4448C260.8 17.4448 258.03 18.9251 255.791 21.8857C253.553 24.8466 252.433 29.0508 252.433 34.4987V51.5879H248.748V15.2065H252.433V23.2713H252.597C253.553 20.5 255.068 18.3448 257.142 16.8053C259.217 15.2658 261.619 14.4958 264.349 14.4958C265.905 14.4958 267.297 14.709 268.526 15.1353V18.6173ZM274.43 5.593C275.07 6.12781 275.808 6.39518 276.643 6.39518C277.532 6.39518 278.298 6.11566 278.938 5.55655C279.578 4.99742 279.898 4.32891 279.898 3.551C279.898 2.72449 279.571 2.06817 278.917 1.58196C278.263 1.0958 277.505 0.852695 276.643 0.852695C275.835 0.852695 275.105 1.10185 274.451 1.60021C273.797 2.09856 273.47 2.74883 273.47 3.551C273.47 4.37756 273.79 5.05818 274.43 5.593ZM274.459 51.5879V15.3485H278.415V51.5879H274.459ZM291.084 45.1373H291.248C294.253 50.0143 298.896 52.453 305.179 52.453C310.806 52.453 315.333 50.5856 318.761 46.8512C322.189 43.1169 323.903 38.222 323.903 32.1666C323.903 26.7243 322.407 22.4181 319.417 19.2491C316.426 16.0801 312.267 14.4958 306.941 14.4958C303.581 14.4958 300.501 15.2201 297.701 16.6693C294.901 18.1184 292.751 20.1739 291.248 22.8364H291.084V15.3792H287.315V68.2152H291.084V45.1373ZM291.27 31.6682V36.2211C291.27 39.8447 292.608 42.9561 295.284 45.5564C297.96 48.1562 301.477 49.4562 305.835 49.4562C310.167 49.4562 313.683 47.874 316.387 44.7092C319.091 41.5445 320.442 37.3859 320.442 32.2331C320.442 27.7155 319.201 24.1274 316.718 21.4683C314.235 18.8095 310.925 17.4802 306.787 17.4802C301.849 17.4802 298.028 18.8919 295.325 21.7155C292.622 24.5388 291.27 27.8566 291.27 31.6682ZM342.135 52.4406C343.847 52.4406 345.68 52.0407 347.636 51.2409V48.2057C345.843 49.0763 344.173 49.5117 342.624 49.5117C340.451 49.5117 338.909 48.9527 337.999 47.8352C337.089 46.7178 336.633 44.9122 336.633 42.4181V18.5618H347.636V15.5975H336.633V5.11616C336.036 5.30439 335.411 5.48083 334.759 5.64552C334.107 5.83374 333.482 6.02196 332.885 6.21018V15.5975H325.387V18.5618H332.885V42.8414C332.885 49.2409 335.968 52.4406 342.135 52.4406Z" fill="#414141"/>
</g>
<defs>
<filter id="filter0_d_0_1" x="0" y="0" width="351.636" height="76.6418" filterUnits="userSpaceOnUse" color-interpolation-filters="sRGB">
<feFlood flood-opacity="0" result="BackgroundImageFix"/>
<feColorMatrix in="SourceAlpha" type="matrix" values="0 0 0 0 0 0 0 0 0 0 0 0 0 0 0 0 0 0 127 0" result="hardAlpha"/>
<feOffset dy="4"/>
<feGaussianBlur stdDeviation="2"/>
<feComposite in2="hardAlpha" operator="out"/>
<feColorMatrix type="matrix" values="0 0 0 0 0 0 0 0 0 0 0 0 0 0 0 0 0 0 0.25 0"/>
<feBlend mode="normal" in2="BackgroundImageFix" result="effect1_dropShadow_0_1"/>
<feBlend mode="normal" in="SourceGraphic" in2="effect1_dropShadow_0_1" result="shape"/>
</filter>
</defs>
</svg>
